<svg width="20" height="20" viewBox="0 0 20 20" fill="none" xmlns="http://www.w3.org/2000/svg">
<path fill-rule="evenodd" clip-rule="evenodd" d="M11.8133 13.4861L14.0364 13.9641L13.5584 11.7406L13.0924 9.76851C13.0943 9.76754 13.0919 9.76473 13.0919 9.76473L7.82464 4.49805C6.36855 5.12301 5.18828 6.26719 4.51562 7.69748L9.84024 13.022L11.8133 13.4861ZM12.8488 10.086L13.1959 11.6101C12.5492 11.9337 12.0065 12.4764 11.6829 13.1236L10.1588 12.7765C10.707 11.5815 11.6538 10.6347 12.8488 10.086Z" fill="#292929"/>
<path fill-rule="evenodd" clip-rule="evenodd" d="M0 0V20H20V0H0ZM10.3767 16.9231C6.80101 16.9231 3.90255 14.0246 3.90255 10.4494C3.90255 9.4651 4.12352 8.53314 4.5164 7.69789L3.14954 6.33138C3.96725 5.00875 5.08136 3.89468 6.40396 3.07692L7.82536 4.49846C8.60857 4.16237 9.47068 3.9756 10.3767 3.9756C13.952 3.9756 16.8504 6.87407 16.8504 10.4493C16.8504 14.0246 13.952 16.9231 10.3767 16.9231Z" fill="#292929"/>
</svg>
