<svg width="20" height="18" viewBox="0 0 20 18" fill="none" xmlns="http://www.w3.org/2000/svg">
<path d="M17.9508 3.65039L19.9508 3.25039C19.9508 3.25039 18.3008 5.10039 17.9508 5.25039C17.9008 6.15039 17.9508 6.45039 17.9508 6.45039C14.1508 22.8004 0.0507812 15.5504 0.0507812 15.5504C5.20078 15.6504 5.60078 13.5504 5.60078 13.5504C2.60078 13.1004 2.00078 11.1504 2.00078 11.1504C3.05078 11.6504 3.60078 10.7504 3.60078 10.7504C0.400781 9.90039 0.800781 6.80039 0.800781 6.80039C1.35078 7.30039 2.25078 7.50039 2.75078 7.55039C2.45078 7.15039 -0.549219 3.50039 1.25078 1.65039C1.25078 1.65039 3.50078 5.65039 9.30078 6.00039L9.70078 5.90039C9.60078 5.60039 9.60078 5.35039 9.60078 5.05039C9.60078 2.75039 11.4508 0.900391 13.7508 0.900391C16.5508 0.900391 17.1508 2.50039 17.1508 2.50039L19.1508 1.30039C19.1508 1.25039 18.9508 3.25039 17.9508 3.65039Z" fill="#292929"/>
</svg>
