<svg width="40" height="40" viewBox="0 0 60 60" fill="none" xmlns="http://www.w3.org/2000/svg">
<circle cx="30" cy="30" r="30" fill="black" fill-opacity="0.7"/>
<path d="M29.9996 17.5605C25.0316 17.5605 20.9897 21.6024 20.9897 26.5704C20.9897 32.7359 29.0527 41.7871 29.396 42.1695C29.7184 42.5286 30.2814 42.528 30.6033 42.1695C30.9466 41.7871 39.0095 32.7359 39.0095 26.5704C39.0094 21.6024 34.9677 17.5605 29.9996 17.5605ZM29.9996 31.1035C27.5001 31.1035 25.4666 29.0699 25.4666 26.5704C25.4666 24.0708 27.5001 22.0373 29.9996 22.0373C32.4991 22.0373 34.5326 24.0709 34.5326 26.5704C34.5326 29.07 32.4991 31.1035 29.9996 31.1035Z" fill="white"/>
</svg>
