<svg width="20" height="14" viewBox="0 0 20 14" fill="none" xmlns="http://www.w3.org/2000/svg">
<path fill-rule="evenodd" clip-rule="evenodd" d="M9.5277 0.415263C9.81642 0.55403 10 0.846011 10 1.16635V12.833C10 13.1534 9.81642 13.4453 9.5277 13.5841C9.23898 13.7229 8.89627 13.6839 8.64613 13.4837L4.70772 10.333H1.66671C1.20647 10.333 0.833374 9.95992 0.833374 9.49968V4.49968C0.833374 4.03945 1.20647 3.66635 1.66671 3.66635H4.70772L8.64613 0.515625C8.89627 0.315512 9.23898 0.276496 9.5277 0.415263ZM8.33337 2.9002L5.52062 5.15041C5.37286 5.26862 5.18927 5.33302 5.00004 5.33302H2.50004V8.66635H5.00004C5.18927 8.66635 5.37286 8.73075 5.52062 8.84896L8.33337 11.0992V2.9002Z" fill="white"/>
<path fill-rule="evenodd" clip-rule="evenodd" d="M19.756 3.91043C20.0814 4.23586 20.0814 4.7635 19.756 5.08894L14.756 10.0889C14.4305 10.4144 13.9029 10.4144 13.5775 10.0889C13.252 9.7635 13.252 9.23586 13.5775 8.91043L18.5775 3.91043C18.9029 3.58499 19.4305 3.58499 19.756 3.91043Z" fill="white"/>
<path fill-rule="evenodd" clip-rule="evenodd" d="M13.5775 3.91043C13.9029 3.58499 14.4305 3.58499 14.756 3.91043L19.756 8.91043C20.0814 9.23586 20.0814 9.7635 19.756 10.0889C19.4305 10.4144 18.9029 10.4144 18.5775 10.0889L13.5775 5.08894C13.252 4.7635 13.252 4.23586 13.5775 3.91043Z" fill="white"/>
</svg>
