<svg width="20" height="20" viewBox="0 0 20 20" fill="none" xmlns="http://www.w3.org/2000/svg">
<path d="M15.7917 12.3886C15.3822 11.9623 14.8883 11.7344 14.3649 11.7344C13.8457 11.7344 13.3476 11.9581 12.9213 12.3844L11.5874 13.7141C11.4777 13.655 11.3679 13.6001 11.2624 13.5452C11.1104 13.4692 10.9669 13.3975 10.8445 13.3215C9.59507 12.5279 8.45959 11.4938 7.37054 10.1557C6.8429 9.48873 6.48833 8.92732 6.23084 8.35747C6.57697 8.04089 6.89778 7.71164 7.21014 7.39506C7.32833 7.27687 7.44652 7.15445 7.56471 7.03626C8.45115 6.14983 8.45115 5.00168 7.56471 4.11525L6.41235 2.96289C6.28149 2.83203 6.14642 2.69696 6.01979 2.56188C5.76652 2.30017 5.50059 2.03002 5.22622 1.77675C4.81677 1.37153 4.32712 1.15625 3.81215 1.15625C3.29717 1.15625 2.79908 1.37153 2.37697 1.77675C2.37275 1.78097 2.37275 1.78097 2.36853 1.7852L0.93335 3.23304C0.393048 3.77334 0.084907 4.43183 0.0173692 5.19586C-0.0839374 6.42842 0.279078 7.57656 0.557671 8.32792C1.24149 10.1725 2.263 11.8821 3.78682 13.7141C5.63567 15.9217 7.86019 17.665 10.4013 18.8934C11.3722 19.3535 12.668 19.898 14.1159 19.9909C14.2045 19.9951 14.2974 19.9993 14.3818 19.9993C15.3569 19.9993 16.1758 19.649 16.8174 18.9525C16.8216 18.944 16.83 18.9398 16.8343 18.9314C17.0538 18.6654 17.307 18.4248 17.573 18.1673C17.7545 17.9943 17.9402 17.8128 18.1217 17.6228C18.5396 17.188 18.7591 16.6815 18.7591 16.1623C18.7591 15.6389 18.5354 15.1366 18.109 14.7145L15.7917 12.3886ZM17.3028 16.8335C17.2986 16.8335 17.2986 16.8377 17.3028 16.8335C17.1382 17.0108 16.9693 17.1712 16.7878 17.3484C16.5135 17.6102 16.2349 17.8845 15.9732 18.1927C15.5468 18.6485 15.0445 18.8638 14.386 18.8638C14.3227 18.8638 14.2552 18.8638 14.1919 18.8596C12.9382 18.7794 11.7732 18.2898 10.8994 17.8719C8.51024 16.7153 6.41235 15.0733 4.66903 12.9923C3.22963 11.2574 2.26722 9.65335 1.62983 7.93114C1.23727 6.88008 1.09375 6.06118 1.15707 5.28872C1.19928 4.79485 1.38923 4.3854 1.73958 4.03505L3.17898 2.59565C3.38581 2.40148 3.60531 2.29595 3.82059 2.29595C4.08652 2.29595 4.3018 2.45635 4.43687 2.59143C4.44109 2.59565 4.44531 2.59987 4.44953 2.60409C4.70702 2.8447 4.95185 3.09374 5.20933 3.35967C5.34019 3.49475 5.47526 3.62982 5.61034 3.76912L6.7627 4.92148C7.21014 5.36892 7.21014 5.78259 6.7627 6.23003C6.64029 6.35244 6.5221 6.47485 6.39969 6.59304C6.04511 6.95606 5.70742 7.29375 5.34019 7.623C5.33175 7.63144 5.3233 7.63566 5.31908 7.6441C4.95607 8.00712 5.0236 8.36169 5.09958 8.60229C5.10381 8.61496 5.10803 8.62762 5.11225 8.64029C5.41195 9.36632 5.83406 10.0501 6.47567 10.8648L6.47989 10.869C7.64491 12.3042 8.87326 13.4228 10.2282 14.2797C10.4013 14.3894 10.5786 14.4781 10.7474 14.5625C10.8994 14.6385 11.0429 14.7102 11.1653 14.7862C11.1822 14.7947 11.1991 14.8073 11.216 14.8158C11.3595 14.8875 11.4946 14.9213 11.6339 14.9213C11.9842 14.9213 12.2037 14.7018 12.2755 14.63L13.7191 13.1864C13.8626 13.0429 14.0905 12.8698 14.3565 12.8698C14.6182 12.8698 14.8335 13.0345 14.9643 13.178C14.9685 13.1822 14.9685 13.1822 14.9728 13.1864L17.2986 15.5123C17.7334 15.9428 17.7334 16.386 17.3028 16.8335Z" fill="white"/>
<path d="M10.7938 4.7574C11.8997 4.94313 12.9043 5.46654 13.7063 6.26855C14.5083 7.07056 15.0275 8.07519 15.2175 9.18112C15.2639 9.45971 15.5045 9.65388 15.7789 9.65388C15.8127 9.65388 15.8422 9.64966 15.876 9.64544C16.1884 9.59479 16.3952 9.29931 16.3445 8.98695C16.1166 7.64886 15.4834 6.42896 14.5168 5.46232C13.5502 4.49569 12.3303 3.86252 10.9922 3.63458C10.6798 3.58393 10.3885 3.79076 10.3337 4.0989C10.2788 4.40705 10.4814 4.70674 10.7938 4.7574Z" fill="white"/>
<path d="M19.9619 8.82236C19.5862 6.61895 18.5478 4.61392 16.9523 3.01834C15.3567 1.42276 13.3516 0.384366 11.1482 0.00868767C10.8401 -0.0461868 10.5488 0.164869 10.494 0.47301C10.4433 0.785372 10.6501 1.07663 10.9625 1.1315C12.9295 1.46497 14.7235 2.39784 16.1502 3.82035C17.577 5.24708 18.5056 7.04106 18.8391 9.00809C18.8855 9.28669 19.1261 9.48086 19.4005 9.48086C19.4343 9.48086 19.4638 9.47664 19.4976 9.47242C19.8057 9.42598 20.0168 9.13051 19.9619 8.82236Z" fill="white"/>
<path d="M0.985352 4.66665L2.98534 2H4.65199L6.65198 3.99999L7.65197 5.99997L5.65199 7.99996L6.65198 10.6666L11.6519 14.3333L12.9853 12.9999L14.6519 12.3333L16.6519 13.9999L18.3186 15.9999L17.3186 17.6666L14.6519 19.3332L10.652 18.3332L4.98533 14.3333L0.985352 8.33329V4.66665Z" fill="white"/>
</svg>
