<svg width="20" height="20" viewBox="0 0 20 20" fill="none" xmlns="http://www.w3.org/2000/svg">
<path fill-rule="evenodd" clip-rule="evenodd" d="M9.5277 3.41526C9.81642 3.55403 10 3.84601 10 4.16635V15.833C10 16.1534 9.81642 16.4453 9.5277 16.5841C9.23898 16.7229 8.89627 16.6839 8.64613 16.4837L4.70772 13.333H1.66671C1.20647 13.333 0.833374 12.9599 0.833374 12.4997V7.49968C0.833374 7.03945 1.20647 6.66635 1.66671 6.66635H4.70772L8.64613 3.51562C8.89627 3.31551 9.23898 3.2765 9.5277 3.41526ZM8.33337 5.9002L5.52062 8.15041C5.37286 8.26862 5.18927 8.33302 5.00004 8.33302H2.50004V11.6663H5.00004C5.18927 11.6663 5.37286 11.7308 5.52062 11.849L8.33337 14.0992V5.9002Z" fill="white"/>
<path fill-rule="evenodd" clip-rule="evenodd" d="M15.3025 3.51938C15.628 3.19399 16.1557 3.19407 16.481 3.51956C18.1995 5.23856 19.1649 7.56972 19.1649 10.0004C19.1649 12.4311 18.1995 14.7622 16.481 16.4812C16.1557 16.8067 15.628 16.8068 15.3025 16.4814C14.977 16.156 14.977 15.6284 15.3024 15.3029C16.7084 13.8964 17.4983 11.9891 17.4983 10.0004C17.4983 8.01166 16.7084 6.10435 15.3024 4.69789C14.977 4.3724 14.977 3.84477 15.3025 3.51938ZM12.3609 6.46105C12.6864 6.13566 13.214 6.13574 13.5394 6.46122C14.4767 7.39886 15.0033 8.6704 15.0033 9.99622C15.0033 11.322 14.4767 12.5936 13.5394 13.5312C13.214 13.8567 12.6864 13.8568 12.3609 13.5314C12.0354 13.206 12.0353 12.6784 12.3607 12.3529C12.9856 11.7278 13.3366 10.8801 13.3366 9.99622C13.3366 9.11234 12.9856 8.26465 12.3607 7.63956C12.0353 7.31407 12.0354 6.78643 12.3609 6.46105Z" fill="white"/>
</svg>
